<?xml version="1.0" encoding="UTF-8" standalone="no"?>
<!DOCTYPE svg PUBLIC "-//W3C//DTD SVG 1.1//EN" "http://www.w3.org/Graphics/SVG/1.1/DTD/svg11.dtd">
<svg width="100%" height="100%" viewBox="0 0 1166 1803" version="1.1" xmlns="http://www.w3.org/2000/svg" xmlns:xlink="http://www.w3.org/1999/xlink" xml:space="preserve" xmlns:serif="http://www.serif.com/" style="fill-rule:evenodd;clip-rule:evenodd;stroke-linejoin:round;stroke-miterlimit:2;">
    <g id="Logo" transform="matrix(0.96748,0,0,0.907895,1301.74,-181.555)">
        <rect x="-1345.5" y="199.974" width="1204.82" height="1985.18" style="fill:none;"/>
        <g id="Phoenix" transform="matrix(1.35308,0,0,1.44188,-1373.79,-598.038)">
            <path id="Unten" d="M354.565,1617.44L354.565,1463.03C472.634,1463.03 585.867,1509.93 669.354,1593.42C672.33,1596.39 675.263,1599.41 678.153,1602.47L354.565,1908.2L354.565,1837.9L545.042,1647.42L505.808,1608.19L354.565,1759.43L354.565,1695.91L467.036,1583.44L427.802,1544.21L354.565,1617.44Z" style="fill:rgb(204,34,41);"/>
            <g id="Mitte">
                <g id="Ring-innen" serif:id="Ring innen" transform="matrix(1.23879,0,0,1.23879,-66.2505,-331.843)">
                    <path d="M619.304,867.439C666.529,915.324 695.689,981.081 695.689,1053.6C695.689,1200 576.827,1318.86 430.423,1318.86C284.019,1318.86 165.158,1200 165.158,1053.6C165.158,981.081 194.317,915.324 241.542,867.439L430.423,1041.51L619.304,867.439Z" style="fill:rgb(204,34,41);"/>
                </g>
                <g id="Ring-aussen" serif:id="Ring aussen" transform="matrix(1.08572,0,0,1.08572,-36.8904,-172.351)">
                    <path d="M176.988,776.881L221.636,818.027C161.606,879.151 124.582,962.904 124.582,1055.24C124.582,1242.18 276.358,1393.96 463.303,1393.96C650.248,1393.96 802.023,1242.18 802.023,1055.24C802.023,963.259 765.284,879.796 705.692,818.766L750.339,777.62C819.915,849.513 862.73,947.414 862.73,1055.24C862.73,1275.69 683.753,1454.66 463.303,1454.66C242.853,1454.66 63.876,1275.69 63.876,1055.24C63.876,947.039 106.989,848.833 176.988,776.881Z" style="fill:rgb(204,34,41);"/>
                </g>
            </g>
            <g id="Oben">
                <g id="Auge--Maske-" serif:id="Auge (Maske)" transform="matrix(0.985002,0,0,0.985002,0.127769,-1.80266)">
                    <path d="M442.57,615.296C471.451,615.296 494.899,638.744 494.899,667.625C494.899,696.506 471.451,719.954 442.57,719.954C413.689,719.954 390.241,696.506 390.241,667.625C390.241,638.744 413.689,615.296 442.57,615.296ZM442.57,637.389C459.258,637.389 472.806,650.937 472.806,667.625C472.806,684.313 459.258,697.861 442.57,697.861C425.882,697.861 412.334,684.313 412.334,667.625C412.334,650.937 425.882,637.389 442.57,637.389Z" style="fill:rgb(204,34,41);"/>
                </g>
                <path id="Head" d="M324.552,575.495L778.244,575.495L467.516,895.511C467.516,895.511 387.16,840.548 354.457,753.641C327.834,682.888 324.552,579.312 324.552,579.312L324.552,575.495ZM436.06,608.124C462.378,608.124 483.745,629.491 483.745,655.809C483.745,682.127 462.378,703.494 436.06,703.494C409.742,703.494 388.375,682.127 388.375,655.809C388.375,629.491 409.742,608.124 436.06,608.124Z" style="fill:rgb(204,34,41);"/>
            </g>
        </g>
    </g>
</svg>
